{"title":"Cemetery.Junction.2010.DVDRiP.XviD.MULTISUB-Zen_Bud","uid":5964457,"size":955498017,"categoryP":"video","categoryS":"movies","magnet":"?xt=urn:btih:bc3644314e1a061025350a195acc9a1c251911df&amp;dn=Cemetery.Junction.2010.DVDRiP.XviD.MULTISUB-Zen_Bud&amp;tr=udp%3A%2F%2Ftracker.openbittorrent.com%3A80&amp;tr=udp%3A%2F%2Fopen.demonii.com%3A1337&amp;tr=udp%3A%2F%2Ftracker.coppersurfer.tk%3A6969&amp;tr=udp%3A%2F%2Fexodus.desync.com%3A6969","seeders":0,"leechers":0,"uploader":"Zen_Bud","files":-1,"time":1290066996,"description":"****** Cemetery.Junction.2010.DVDRiP.XviD.MULTISUB-Zen_Bud *******\n\nFormat                           : AVI\nFormat profile                   : OpenDML\nFile size                        : 878 MiB\nDuration                         : 1h 30mn\nOverall bit rate                 : 1 351 Kbps\nWriting application              : AVI-Mux GUI 1.17.8.3\n\nVideo\n\nFormat                           : MPEG-4 Visual\nCodec ID/Hint                    : XviD\nDuration                         : 1h 30mn\nBit rate                         : 1 219 Kbps\nWidth                            : 720 pixels\nHeight                           : 428 pixels\nDisplay aspect ratio             : 2.35:1\nStream size                      : 792 MiB (90%)\nWriting library                  : XviD 1.1.2 \n\nAudio\n\nFormat                           : MPEG Audio\nCodec ID/Hint                    : MP3\nDuration                         : 1h 30mn\nBit rate                         : 128 Kbps\nChannel(s)                       : 2 channels\nSampling rate                    : 48.0 KHz\nStream size                      : 83.2 MiB (9%)\nLanguage                         : English\n\nText #1\nLanguage                         : English\n\nText #2\nLanguage                         : Italian\n\nText #3\nLanguage                         : Danish\n\nText #4\nLanguage                         : Finnish\n\nText #5\nLanguage                         : Norwegian\n\nText #6\nLanguage                         : Swedish\n\n\nA 1970s-set comedy centered on three upstart professional men working at an insurance company. ","torrent":{"xt":"urn:btih:bc3644314e1a061025350a195acc9a1c251911df","amp;dn":"Cemetery.Junction.2010.DVDRiP.XviD.MULTISUB-Zen_Bud","amp;tr":["udp%3A%2F%2Ftracker.openbittorrent.com%3A80","udp%3A%2F%2Fopen.demonii.com%3A1337","udp%3A%2F%2Ftracker.coppersurfer.tk%3A6969","udp%3A%2F%2Fexodus.desync.com%3A6969"],"infoHash":"bc3644314e1a061025350a195acc9a1c251911df","infoHashBuffer":{"type":"Buffer","data":[188,54,68,49,78,26,6,16,37,53,10,25,90,204,154,28,37,25,17,223]},"announce":[],"urlList":[]}}